<svg width="18" height="18" viewBox="0 0 18 18" fill="none" xmlns="http://www.w3.org/2000/svg">
<path d="M14.7271 5.09086V7.80905C14.7271 7.80905 12.918 7.81814 12.9089 7.80905V5.09086H10.1816C10.1816 5.09086 10.1907 3.28177 10.1816 3.27268H12.9089V0.54541H14.7271V3.27268H17.4544V5.09086H14.7271ZM11.9998 8.72723V5.99996H9.27255V3.27268H1.99982C0.999822 3.27268 0.181641 4.09086 0.181641 5.09086V16C0.181641 17 0.999822 17.8181 1.99982 17.8181H12.9089C13.9089 17.8181 14.7271 17 14.7271 16V8.72723H11.9998ZM1.99982 16L4.7271 12.3636L6.54528 15.0909L9.27255 11.4545L12.9089 16H1.99982Z" fill="white"/>
</svg>
