<svg width="17" height="18" viewBox="0 0 17 18" fill="none" xmlns="http://www.w3.org/2000/svg">
<ellipse cx="8.43228" cy="9.08072" rx="7.02701" ry="7.02701" fill="#C13584"/>
<path d="M8.43252 5.62442C9.55829 5.62442 9.69164 5.62872 10.1362 5.649C10.5473 5.66775 10.7705 5.73643 10.9191 5.79417C11.1159 5.87066 11.2564 5.96202 11.4039 6.10955C11.5514 6.2571 11.6428 6.39755 11.7193 6.59435C11.777 6.74291 11.8457 6.96616 11.8645 7.37723C11.8847 7.82181 11.889 7.95517 11.889 9.08093C11.889 10.2067 11.8847 10.3401 11.8645 10.7846C11.8457 11.1957 11.777 11.419 11.7193 11.5675C11.6428 11.7643 11.5514 11.9048 11.4039 12.0523C11.2564 12.1998 11.1159 12.2912 10.9191 12.3677C10.7705 12.4254 10.5473 12.4941 10.1362 12.5129C9.69171 12.5332 9.55837 12.5375 8.43252 12.5375C7.30666 12.5375 7.17334 12.5332 6.7288 12.5129C6.31773 12.4941 6.09448 12.4254 5.94592 12.3677C5.74911 12.2912 5.60866 12.1998 5.46113 12.0523C5.3136 11.9048 5.22222 11.7643 5.14574 11.5675C5.088 11.419 5.01931 11.1957 5.00057 10.7846C4.98028 10.3401 4.97598 10.2067 4.97598 9.08093C4.97598 7.95517 4.98028 7.82181 5.00057 7.37723C5.01931 6.96616 5.088 6.74291 5.14574 6.59435C5.22222 6.39755 5.31359 6.2571 5.46113 6.10957C5.60866 5.96202 5.74911 5.87066 5.94592 5.79417C6.09448 5.73643 6.31773 5.66775 6.7288 5.649C7.17339 5.62872 7.30674 5.62442 8.43252 5.62442ZM8.43252 4.86475C7.28746 4.86475 7.14388 4.8696 6.69418 4.89012C6.24541 4.91059 5.93892 4.98187 5.67074 5.08608C5.39349 5.19383 5.15836 5.338 4.92395 5.57239C4.68956 5.80679 4.54539 6.04192 4.43766 6.31917C4.33343 6.58735 4.26215 6.89384 4.24168 7.34261C4.22116 7.79231 4.21631 7.93589 4.21631 9.08093C4.21631 10.226 4.22116 10.3696 4.24168 10.8193C4.26215 11.268 4.33343 11.5745 4.43766 11.8427C4.54539 12.12 4.68956 12.3551 4.92395 12.5895C5.15836 12.8239 5.39349 12.968 5.67074 13.0758C5.93892 13.18 6.24541 13.2513 6.69418 13.2718C7.14388 13.2923 7.28746 13.2971 8.43252 13.2971C9.57757 13.2971 9.72115 13.2923 10.1708 13.2718C10.6196 13.2513 10.9261 13.18 11.1943 13.0758C11.4715 12.968 11.7067 12.8239 11.9411 12.5895C12.1755 12.3551 12.3196 12.12 12.4274 11.8427C12.5316 11.5745 12.6029 11.268 12.6233 10.8193C12.6439 10.3696 12.6487 10.226 12.6487 9.08093C12.6487 7.93589 12.6439 7.79231 12.6233 7.34261C12.6029 6.89384 12.5316 6.58735 12.4274 6.31917C12.3196 6.04192 12.1755 5.80679 11.9411 5.57239C11.7067 5.338 11.4715 5.19383 11.1943 5.08608C10.9261 4.98187 10.6196 4.91059 10.1708 4.89012C9.72115 4.8696 9.57757 4.86475 8.43252 4.86475Z" fill="white"/>
<path d="M8.43462 6.91797C7.23886 6.91797 6.26953 7.8873 6.26953 9.08303C6.26953 10.2788 7.23886 11.2481 8.43462 11.2481C9.63035 11.2481 10.5997 10.2788 10.5997 9.08303C10.5997 7.8873 9.63035 6.91797 8.43462 6.91797ZM8.43462 10.4884C7.65842 10.4884 7.02921 9.85922 7.02921 9.08303C7.02921 8.30685 7.65842 7.67764 8.43462 7.67764C9.21079 7.67764 9.84001 8.30685 9.84001 9.08303C9.84001 9.85922 9.21079 10.4884 8.43462 10.4884Z" fill="white"/>
<path d="M11.1911 6.83115C11.1911 7.11056 10.9646 7.33708 10.6851 7.33708C10.4057 7.33708 10.1792 7.11056 10.1792 6.83115C10.1792 6.55172 10.4057 6.3252 10.6851 6.3252C10.9646 6.3252 11.1911 6.55172 11.1911 6.83115Z" fill="white"/>
</svg>
