<svg width="18" height="18" viewBox="0 0 18 18" fill="none" xmlns="http://www.w3.org/2000/svg">
<ellipse cx="9.16177" cy="9.08072" rx="7.02701" ry="7.02701" fill="#0077B5"/>
<path fill-rule="evenodd" clip-rule="evenodd" d="M7.32605 5.66719C7.32605 6.10465 6.99296 6.45868 6.47206 6.45868C5.97145 6.45868 5.63836 6.10465 5.64867 5.66719C5.63836 5.20847 5.97145 4.86475 6.48204 4.86475C6.99295 4.86475 7.31606 5.20847 7.32605 5.66719ZM5.69055 12.1795V7.08395H7.27418V12.1792H5.69055V12.1795Z" fill="white"/>
<path fill-rule="evenodd" clip-rule="evenodd" d="M8.54334 8.71008C8.54334 8.0745 8.5224 7.53267 8.50146 7.08457H9.87699L9.95011 7.78265H9.98137C10.1898 7.45954 10.7107 6.97021 11.5547 6.97021C12.5965 6.97021 13.378 7.65798 13.378 9.15785V12.1801H11.7944V9.35629C11.7944 8.69945 11.5653 8.25168 10.9922 8.25168C10.5545 8.25168 10.2942 8.55384 10.1901 8.84538C10.1482 8.94975 10.1276 9.09536 10.1276 9.24161V12.1801H8.54398V8.71008H8.54334Z" fill="white"/>
</svg>
