<svg width="13" height="17" viewBox="0 0 13 17" fill="none" xmlns="http://www.w3.org/2000/svg">
<path fill-rule="evenodd" clip-rule="evenodd" d="M0.900391 6.51345C0.900391 9.56152 4.56573 16.2 6.50039 16.2C8.43505 16.2 12.1004 9.56152 12.1004 6.51345C12.1004 3.36154 9.59682 0.800003 6.50039 0.800003C3.40396 0.800003 0.900391 3.36154 0.900391 6.51345ZM8.86454 11.7067C7.88234 13.4856 6.77981 14.8 6.50039 14.8C6.22098 14.8 5.11844 13.4856 4.13624 11.7067C3.0449 9.73011 2.30039 7.65951 2.30039 6.51345C2.30039 4.12766 4.18443 2.2 6.50039 2.2C8.81636 2.2 10.7004 4.12766 10.7004 6.51345C10.7004 7.65951 9.95588 9.73011 8.86454 11.7067ZM6.50039 9.2C4.95399 9.2 3.70039 7.9464 3.70039 6.4C3.70039 4.85361 4.95399 3.6 6.50039 3.6C8.04679 3.6 9.30039 4.85361 9.30039 6.4C9.30039 7.9464 8.04679 9.2 6.50039 9.2ZM7.90039 6.4C7.90039 7.1732 7.27359 7.8 6.50039 7.8C5.72719 7.8 5.10039 7.1732 5.10039 6.4C5.10039 5.6268 5.72719 5 6.50039 5C7.27359 5 7.90039 5.6268 7.90039 6.4Z" fill="#fff"/>
</svg>
