<svg width="143" height="32" viewBox="0 0 143 32" fill="none" xmlns="http://www.w3.org/2000/svg">
<path d="M6.34819 6.75655V19.3892H12.6964C13.5664 19.3892 14.3848 19.2279 15.1515 18.9051C15.9184 18.5677 16.5894 18.1128 17.1644 17.5406C17.7395 16.9684 18.1893 16.3008 18.5136 15.5379C18.8529 14.7602 19.0224 13.9386 19.0224 13.073C19.0224 12.2072 18.8529 11.3929 18.5136 10.63C18.1893 9.85238 17.7395 9.17746 17.1644 8.60524C16.5894 8.03303 15.9184 7.58552 15.1515 7.26271C14.3848 6.92526 13.5664 6.75655 12.6964 6.75655H6.34819ZM6.34819 32H0V0.440167H12.6964C13.8612 0.440167 14.982 0.59422 16.0585 0.902333C17.135 1.19578 18.1376 1.62128 19.0667 2.17882C20.0104 2.7217 20.8656 3.38193 21.6325 4.15956C22.414 4.92253 23.0775 5.77349 23.6232 6.71252C24.1835 7.65155 24.6112 8.65657 24.9061 9.72765C25.2157 10.7987 25.3706 11.9138 25.3706 13.073C25.3706 14.8042 25.0388 16.4402 24.3753 17.9807C23.7116 19.5067 22.8048 20.8418 21.6546 21.9863C20.5044 23.1307 19.1552 24.033 17.6068 24.6933C16.0732 25.3535 14.4364 25.6836 12.6964 25.6836H6.34819V32ZM51.3162 32H29.1087V0.440167H35.4568V25.6836H51.3162V32ZM73.3027 19.3892V13.073C73.3027 12.2072 73.1331 11.3929 72.794 10.63C72.4694 9.85238 72.0198 9.17746 71.4446 8.60524C70.8697 8.03303 70.1912 7.58552 69.4097 7.26271C68.6429 6.92526 67.8244 6.75655 66.9544 6.75655C66.0846 6.75655 65.2585 6.92526 64.477 7.26271C63.7103 7.58552 63.0393 8.03303 62.4644 8.60524C61.8892 9.17746 61.4321 9.85238 61.093 10.63C60.7686 11.3929 60.6063 12.2072 60.6063 13.073V19.3892H73.3027ZM79.6508 32H73.3027V25.6836H60.6063V32H54.2802V13.073C54.2802 11.3269 54.6121 9.69096 55.2755 8.16508C55.9393 6.6245 56.8388 5.282 57.9742 4.13755C59.1243 2.99312 60.4662 2.09079 61.9997 1.43054C63.548 0.770284 65.1998 0.440167 66.9544 0.440167C68.7092 0.440167 70.3535 0.770284 71.887 1.43054C73.4352 2.09079 74.7847 2.99312 75.9348 4.13755C77.0852 5.282 77.992 6.6245 78.6554 8.16508C79.3192 9.69096 79.6508 11.3269 79.6508 13.073V32ZM107.587 32H83.0351L96.5718 6.75655H83.0351V0.440167H107.587L94.0945 25.6836H107.587V32ZM143 32H136.674V9.46355C136.674 9.02339 136.586 8.61256 136.408 8.23111C136.246 7.84962 136.018 7.51949 135.723 7.24072C135.442 6.94728 135.11 6.71987 134.727 6.55848C134.343 6.39709 133.931 6.31639 133.488 6.31639C133.047 6.31639 132.633 6.39709 132.25 6.55848C131.867 6.71987 131.528 6.94728 131.232 7.24072C130.952 7.51949 130.731 7.84962 130.569 8.23111C130.407 8.61256 130.326 9.02339 130.326 9.46355V32H123.977V9.46355C123.977 9.02339 123.897 8.61256 123.734 8.23111C123.572 7.84962 123.343 7.51949 123.049 7.24072C122.768 6.94728 122.436 6.71987 122.053 6.55848C121.669 6.39709 121.256 6.31639 120.814 6.31639C120.372 6.31639 119.959 6.39709 119.576 6.55848C119.193 6.71987 118.854 6.94728 118.559 7.24072C118.278 7.51949 118.057 7.84962 117.895 8.23111C117.732 8.61256 117.652 9.02339 117.652 9.46355V32H111.303V9.46355C111.303 8.15773 111.547 6.93261 112.033 5.78819C112.535 4.62906 113.213 3.62404 114.068 2.77303C114.938 1.90739 115.948 1.23246 117.098 0.748283C118.263 0.249433 119.502 0 120.814 0C121.995 0 123.13 0.212752 124.221 0.638236C125.312 1.04906 126.293 1.65062 127.162 2.44292C128.032 1.65062 129.006 1.04906 130.082 0.638236C131.174 0.212752 132.31 0 133.488 0C134.801 0 136.033 0.249433 137.183 0.748283C138.347 1.23246 139.358 1.90739 140.213 2.77303C141.083 3.62404 141.761 4.62906 142.248 5.78819C142.749 6.93261 143 8.15773 143 9.46355V32Z" fill="white"/>
</svg>
