<svg width="12" height="12" viewBox="0 0 12 12" fill="#4da4c5" xmlns="http://www.w3.org/2000/svg">
<path fill-rule="evenodd" clip-rule="evenodd" d="M11.3661 0.634217C11.6785 0.946636 11.6785 1.45317 11.3661 1.76559L7.13176 5.9999L11.3661 10.2342C11.6785 10.5466 11.6785 11.0532 11.3661 11.3656C11.0537 11.678 10.5471 11.678 10.2347 11.3656L6.00039 7.13127L1.76608 11.3656C1.45366 11.678 0.947125 11.678 0.634705 11.3656C0.322286 11.0532 0.322286 10.5466 0.634705 10.2342L4.86902 5.9999L0.634705 1.76559C0.322286 1.45317 0.322286 0.946636 0.634705 0.634217C0.947125 0.321797 1.45366 0.321797 1.76608 0.634217L6.00039 4.86853L10.2347 0.634217C10.5471 0.321797 11.0537 0.321797 11.3661 0.634217Z" fill="#4da4c5"/>
</svg>
