<svg width="34" height="34" viewBox="0 0 34 34" fill="none" xmlns="http://www.w3.org/2000/svg">
<g clip-path="url(#clip0)">
<path d="M10.2529 24.4246C8.10325 22.275 8.10325 18.796 10.2529 16.6464L17.6775 9.22181C19.2402 7.65911 21.7716 7.65911 23.3343 9.22181C24.897 10.7845 24.897 13.316 23.3343 14.8787L17.3239 20.8891C16.3481 21.8649 14.7642 21.8649 13.7884 20.8891C12.8126 19.9133 12.8126 18.3293 13.7884 17.3535L19.0917 12.0502L20.5059 13.4645L15.139 18.8314C14.7501 19.2203 15.4572 19.9274 15.8461 19.5385L21.9201 13.4645C22.6979 12.6866 22.6979 11.4138 21.9201 10.636C21.1423 9.85821 19.8695 9.85821 19.0917 10.636L11.6671 18.0606C10.3024 19.4254 10.3024 21.6457 11.6671 23.0104C13.0318 24.3751 15.2521 24.3751 16.6168 23.0104L23.3343 16.2929L24.7485 17.7071L18.031 24.4246C15.8814 26.5742 12.4025 26.5742 10.2529 24.4246Z" fill="#707070"/>
</g>
<defs>
<clipPath id="clip0">
<rect width="24" height="24" fill="white" transform="translate(0 17) rotate(-45)"/>
</clipPath>
</defs>
</svg>
