<svg width="364" height="83" viewBox="0 0 364 83" fill="none" xmlns="http://www.w3.org/2000/svg">
<path d="M16.8179 17.9333V50.4949H32.934C35.1426 50.4949 37.2202 50.0789 39.1668 49.247C41.1136 48.3773 42.8169 47.2049 44.2767 45.7298C45.7368 44.255 46.8785 42.5342 47.702 40.5678C48.5633 38.5632 48.9936 36.4455 48.9936 34.2143C48.9936 31.9827 48.5633 29.8839 47.702 27.9174C46.8785 25.913 45.7368 24.1734 44.2767 22.6984C42.8169 21.2235 41.1136 20.07 39.1668 19.238C37.2202 18.3682 35.1426 17.9333 32.934 17.9333H16.8179ZM16.8179 83H0.701965V1.65241H32.934C35.8911 1.65241 38.7364 2.04949 41.4692 2.84368C44.202 3.60005 46.7475 4.6968 49.1061 6.13392C51.5018 7.53321 53.673 9.23499 55.6198 11.2394C57.6038 13.206 59.2882 15.3994 60.6734 17.8198C62.0961 20.2402 63.1816 22.8307 63.9304 25.5915C64.7164 28.3522 65.1096 31.2266 65.1096 34.2143C65.1096 38.6768 64.2672 42.8936 62.5828 46.8644C60.898 50.7976 58.5958 54.2391 55.6759 57.1889C52.7559 60.1388 49.3306 62.4645 45.3998 64.1665C41.5065 65.8682 37.3513 66.7192 32.934 66.7192H16.8179V83ZM130.977 83H74.5995V1.65241H90.7152V66.7192H130.977V83ZM186.793 50.4949V34.2143C186.793 31.9827 186.363 29.8839 185.502 27.9174C184.678 25.913 183.537 24.1734 182.076 22.6984C180.617 21.2235 178.894 20.07 176.91 19.238C174.964 18.3682 172.886 17.9333 170.677 17.9333C168.469 17.9333 166.372 18.3682 164.388 19.238C162.442 20.07 160.738 21.2235 159.279 22.6984C157.818 24.1734 156.658 25.913 155.797 27.9174C154.974 29.8839 154.561 31.9827 154.561 34.2143V50.4949H186.793ZM202.909 83H186.793V66.7192H154.561V83H138.502V34.2143C138.502 29.7136 139.344 25.497 141.028 21.5639C142.713 17.593 144.997 14.1326 147.879 11.1827C150.799 8.23282 154.206 5.907 158.099 4.20517C162.029 2.50331 166.223 1.65241 170.677 1.65241C175.132 1.65241 179.306 2.50331 183.199 4.20517C187.13 5.907 190.556 8.23282 193.476 11.1827C196.396 14.1326 198.698 17.593 200.382 21.5639C202.067 25.497 202.909 29.7136 202.909 34.2143V83ZM273.83 83H211.501L245.866 17.9333H211.501V1.65241H273.83L239.577 66.7192H273.83V83ZM363.732 83H347.672V24.9108C347.672 23.7762 347.448 22.7173 346.998 21.7341C346.585 20.7508 346.007 19.8999 345.257 19.1813C344.545 18.4249 343.703 17.8388 342.73 17.4228C341.756 17.0068 340.71 16.7988 339.585 16.7988C338.463 16.7988 337.415 17.0068 336.441 17.4228C335.468 17.8388 334.608 18.4249 333.858 19.1813C333.146 19.8999 332.586 20.7508 332.173 21.7341C331.763 22.7173 331.557 23.7762 331.557 24.9108V83H315.439V24.9108C315.439 23.7762 315.235 22.7173 314.823 21.7341C314.41 20.7508 313.829 19.8999 313.082 19.1813C312.371 18.4249 311.527 17.8388 310.554 17.4228C309.581 17.0068 308.532 16.7988 307.41 16.7988C306.286 16.7988 305.24 17.0068 304.267 17.4228C303.293 17.8388 302.433 18.4249 301.683 19.1813C300.971 19.8999 300.41 20.7508 299.998 21.7341C299.585 22.7173 299.382 23.7762 299.382 24.9108V83H283.264V24.9108C283.264 21.545 283.883 18.3871 285.118 15.4373C286.39 12.4496 288.113 9.85906 290.284 7.66552C292.493 5.43428 295.056 3.69461 297.975 2.4466C300.933 1.16078 304.078 0.517853 307.41 0.517853C310.406 0.517853 313.289 1.06623 316.058 2.16295C318.827 3.22189 321.317 4.77245 323.525 6.81464C325.734 4.77245 328.206 3.22189 330.938 2.16295C333.71 1.06623 336.593 0.517853 339.585 0.517853C342.918 0.517853 346.045 1.16078 348.965 2.4466C351.92 3.69461 354.486 5.43428 356.656 7.66552C358.865 9.85906 360.588 12.4496 361.823 15.4373C363.095 18.3871 363.732 21.545 363.732 24.9108V83Z" fill="#280A33"/>
</svg>
