<svg width="16" height="16" viewBox="0 0 16 16" fill="none" xmlns="http://www.w3.org/2000/svg">
<path fill-rule="evenodd" clip-rule="evenodd" d="M7.99967 0.411775C8.4415 0.411775 8.79967 0.769947 8.79967 1.21178V7.2H14.7879C15.2297 7.2 15.5879 7.55817 15.5879 8C15.5879 8.44183 15.2297 8.8 14.7879 8.8H8.79967L8.79967 14.7882C8.79967 15.2301 8.4415 15.5882 7.99967 15.5882C7.55785 15.5882 7.19967 15.2301 7.19967 14.7882L7.19967 8.8L1.21145 8.8C0.769621 8.8 0.411449 8.44183 0.411449 8C0.411449 7.55817 0.769621 7.2 1.21145 7.2L7.19967 7.2L7.19967 1.21178C7.19967 0.769947 7.55785 0.411775 7.99967 0.411775Z" fill="white"/>
</svg>
