<svg width="18" height="18" viewBox="0 0 18 18" fill="none" xmlns="http://www.w3.org/2000/svg">
<ellipse cx="9.29703" cy="9.08072" rx="7.02701" ry="7.02701" fill="#1DA1F2"/>
<path fill-rule="evenodd" clip-rule="evenodd" d="M13.5135 6.37853C13.2035 6.51625 12.8698 6.609 12.5199 6.65087C12.8771 6.4367 13.1515 6.09774 13.2805 5.69386C12.9466 5.89229 12.5758 6.03591 12.1821 6.11377C11.8664 5.77762 11.4165 5.56738 10.9193 5.56738C9.96394 5.56738 9.18933 6.34199 9.18933 7.29732C9.18933 7.43279 9.20479 7.56489 9.2343 7.69164C7.79639 7.61969 6.52178 6.93081 5.66847 5.88414C5.51951 6.13962 5.43435 6.43671 5.43435 6.75375C5.43435 7.35381 5.7393 7.88333 6.2039 8.19362C5.92002 8.18463 5.65358 8.10677 5.42001 7.97721V7.99885C5.42001 8.83725 6.01671 9.53625 6.80762 9.69561C6.66259 9.73496 6.50969 9.75632 6.35201 9.75632C6.24043 9.75632 6.13194 9.74536 6.02626 9.72512C6.24634 10.4123 6.88547 10.9126 7.64237 10.9267C7.05045 11.3904 6.30452 11.6673 5.49393 11.6673C5.35396 11.6673 5.21625 11.6591 5.08105 11.6428C5.84667 12.1335 6.7559 12.4202 7.73287 12.4202C10.9148 12.4202 12.6548 9.78415 12.6548 7.49827C12.6548 7.42323 12.6534 7.34847 12.6498 7.27455C12.9882 7.03003 13.2816 6.72536 13.5135 6.37853Z" fill="white"/>
</svg>
