<svg width="17" height="15" viewBox="0 0 17 15" fill="none" xmlns="http://www.w3.org/2000/svg">
<path fill-rule="evenodd" clip-rule="evenodd" d="M4.89138 4.97545C5.19078 5.27485 5.67621 5.27485 5.97561 4.97545L7.7335 3.21756V9.80113C7.7335 10.2239 8.07675 10.5667 8.50016 10.5667C8.92358 10.5667 9.26683 10.2239 9.26683 9.80113V3.21757L11.0247 4.97545C11.3241 5.27485 11.8095 5.27485 12.1089 4.97545C12.4083 4.67605 12.4083 4.19062 12.1089 3.89122L9.04228 0.824552C8.74288 0.52515 8.25745 0.52515 7.95805 0.824552L4.89138 3.89122C4.59198 4.19062 4.59198 4.67605 4.89138 4.97545ZM14.6335 12.8667V8.26667C14.6335 7.84325 14.9767 7.5 15.4002 7.5C15.8236 7.5 16.1668 7.84325 16.1668 8.26667V13.6333C16.1668 14.0568 15.8236 14.4 15.4002 14.4H1.60016C1.17674 14.4 0.833496 14.0568 0.833496 13.6333V8.26667C0.833496 7.84325 1.17674 7.5 1.60016 7.5C2.02358 7.5 2.36683 7.84325 2.36683 8.26667V12.8667H14.6335Z" fill="#fff"/>
</svg>
