<?xml version="1.0" encoding="utf-8"?>
<!-- Generator: Adobe Illustrator 23.1.0, SVG Export Plug-In . SVG Version: 6.00 Build 0)  -->
<svg width="28" version="1.1" id="Layer_1" xmlns="http://www.w3.org/2000/svg" xmlns:xlink="http://www.w3.org/1999/xlink" x="0px" y="0px"
	 viewBox="0 0 24.6 25" style="enable-background:new 0 0 24.6 25;" xml:space="preserve">
<style type="text/css">
	.st0{fill-rule:evenodd;clip-rule:evenodd;fill:#FF479D;}
	.st1{fill:#FFFFFF;}
</style>
<path class="st0" d="M12.9,7.5c0,2.3,1.9,4.2,4.2,4.2s4.2-1.9,4.2-4.2s-1.9-4.2-4.2-4.2C14.7,3.3,12.9,5.2,12.9,7.5z M10.6,20
	c0.5,0,1,0,1,0h5h6.3h0.7c0,0,0.5,0,1,0c0.1-5.5-2.5-7.5-7.5-7.5c-4.8,0-7.4,2.1-7.5,7.5C10.1,20,10.6,20,10.6,20z"/>
<path class="st0" d="M2.9,7.5c0,2.3,1.9,4.2,4.2,4.2s4.2-1.9,4.2-4.2S9.4,3.3,7.1,3.3C4.7,3.3,2.9,5.2,2.9,7.5z M0.6,20
	c0.5,0,1,0,1,0h5h6.3h0.7c0,0,0.5,0,1,0c0.1-5.5-2.5-7.5-7.5-7.5c-4.8,0-7.4,2.1-7.5,7.5C0.1,20,0.6,20,0.6,20z"/>
<path class="st1" d="M1.6,20v-0.5l0,0V20z M0.6,20v-0.5l0,0l0,0V20z M13.6,20v0.5l0,0l0,0V20z M14.5,20v0.5H15V20H14.5z M-0.4,20
	h-0.5v0.5h0.5V20z M7.1,11.2c-2,0-3.7-1.6-3.7-3.7h-1c0,2.6,2.1,4.7,4.7,4.7V11.2z M10.7,7.5c0,2-1.6,3.7-3.7,3.7v1
	c2.6,0,4.7-2.1,4.7-4.7H10.7z M7.1,3.8c2,0,3.7,1.6,3.7,3.7h1c0-2.6-2.1-4.7-4.7-4.7V3.8z M3.4,7.5c0-2,1.6-3.7,3.7-3.7v-1
	c-2.6,0-4.7,2.1-4.7,4.7H3.4z M1.6,20c0-0.5,0-0.5,0-0.5l0,0l0,0l0,0l0,0l0,0l0,0c0,0,0,0-0.1,0s-0.1,0-0.2,0c-0.2,0-0.4,0-0.7,0v1
	c0.2,0,0.5,0,0.7,0c0.1,0,0.2,0,0.2,0h0.1l0,0l0,0l0,0l0,0l0,0l0,0C1.6,20.5,1.6,20.5,1.6,20z M6.6,19.5h-5v1h5V19.5z M12.9,19.5
	H6.6v1h6.3V19.5z M13.6,19.5h-0.7v1h0.7V19.5z M14.6,19.5c-0.3,0-0.5,0-0.7,0c-0.1,0-0.2,0-0.2,0h-0.1l0,0l0,0l0,0l0,0l0,0l0,0
	c0,0,0,0,0,0.5s0,0.5,0,0.5l0,0l0,0l0,0l0,0l0,0l0,0c0,0,0,0,0.1,0s0.1,0,0.2,0c0.2,0,0.4,0,0.7,0V19.5z M7.1,13
	c2.5,0,4.2,0.5,5.3,1.6s1.7,2.8,1.7,5.4h1c0.1-2.8-0.6-4.8-2-6.2c-1.4-1.3-3.5-1.9-6-1.9V13z M0.1,20c0.1-2.6,0.7-4.4,1.8-5.4
	C3,13.5,4.7,13,7.1,13v-1c-2.5,0-4.5,0.5-5.9,1.9c-1.4,1.3-2.1,3.3-2.1,6.1H0.1z M0.6,20.1c0-0.4,0-0.4,0-0.4l0,0l0,0l0,0l0,0l0,0
	l0,0c0,0,0,0-0.1,0s-0.1,0-0.2,0c-0.2,0-0.4,0-0.7,0v0.7c0.3,0,0.5,0,0.7,0c0.1,0,0.2,0,0.2,0h0.1l0,0l0,0l0,0l0,0l0,0l0,0
	C0.6,20.5,0.6,20.5,0.6,20.1z"/>
</svg>
