<svg width="20" height="20" viewBox="0 0 20 20" fill="none" xmlns="http://www.w3.org/2000/svg">
<path d="M14.9999 6.66699C14.9999 5.34091 14.4732 4.06914 13.5355 3.13146C12.5978 2.19378 11.326 1.66699 9.99994 1.66699C8.67386 1.66699 7.40209 2.19378 6.46441 3.13146C5.52672 4.06914 4.99994 5.34091 4.99994 6.66699C4.99994 12.5003 2.49994 14.167 2.49994 14.167H17.4999C17.4999 14.167 14.9999 12.5003 14.9999 6.66699Z" stroke="#767676" stroke-linecap="round" stroke-linejoin="round"/>
<path d="M11.4417 17.5C11.2952 17.7526 11.0849 17.9622 10.8319 18.1079C10.5789 18.2537 10.292 18.3304 10 18.3304C9.70803 18.3304 9.42117 18.2537 9.16816 18.1079C8.91515 17.9622 8.70486 17.7526 8.55835 17.5" stroke="#767676" stroke-linecap="round" stroke-linejoin="round"/>
</svg>
