<?xml version="1.0" encoding="utf-8"?>
<!-- Generator: Adobe Illustrator 23.1.0, SVG Export Plug-In . SVG Version: 6.00 Build 0)  -->
<svg version="1.1" id="Layer_1" xmlns="http://www.w3.org/2000/svg" xmlns:xlink="http://www.w3.org/1999/xlink" x="0px" y="0px"
	 viewBox="0 0 12 12" style="enable-background:new 0 0 12 12;" xml:space="preserve">
<style type="text/css">
	.st0{fill:#FFFFFF;}
</style>
<g id="noun_Close_636011" transform="translate(-0.208 -0.267)">
	<path id="Path" class="st0" d="M7.1,6.3l4.5-4.6c0.2-0.2,0.2-0.6,0-0.8c0,0,0,0,0,0c-0.2-0.2-0.6-0.2-0.8,0c0,0,0,0,0,0L6.2,5.4
		L1.7,0.9c-0.2-0.2-0.6-0.2-0.8,0c0,0,0,0,0,0c-0.2,0.2-0.2,0.6,0,0.8c0,0,0,0,0,0l4.5,4.6l-4.5,4.5c-0.2,0.2-0.2,0.6,0,0.8
		c0,0,0,0,0,0c0.1,0.1,0.3,0.2,0.4,0.2c0.2,0,0.3-0.1,0.4-0.2l4.6-4.5l4.5,4.5c0.2,0.2,0.6,0.2,0.8,0c0,0,0,0,0,0
		c0.2-0.2,0.2-0.6,0-0.8c0,0,0,0,0,0L7.1,6.3z"/>
</g>
</svg>
