<?xml version="1.0" standalone="no"?>
<svg version="1.0" xmlns="http://www.w3.org/2000/svg"
 width="951.000000pt" height="866.000000pt" viewBox="0 0 951.000000 866.000000"
 preserveAspectRatio="xMidYMid meet">
<g transform="translate(0.000000,866.000000) scale(0.100000,-0.100000)"
fill="#d2d2d2" stroke="none">
<path d="M1140 8603 c-375 -58 -694 -259 -894 -563 -87 -132 -141 -258 -184
-430 l-26 -105 -4 -2230 c-2 -1561 0 -2262 8 -2338 31 -304 146 -550 360 -768
161 -163 304 -254 513 -324 205 -68 78 -65 2302 -65 l2010 0 750 -751 c413
-413 778 -770 812 -795 73 -53 205 -116 288 -138 83 -22 235 -30 326 -17 287
40 545 225 663 475 79 167 86 233 86 775 l0 451 48 0 c81 0 234 28 338 61 202
64 357 160 515 318 192 191 301 395 356 668 17 83 18 218 18 2368 0 2163 -1
2285 -18 2370 -102 505 -455 880 -952 1013 l-100 27 -3595 1 c-1977 1 -3606 0
-3620 -3z m7182 -896 c138 -68 220 -185 239 -340 6 -53 9 -850 7 -2232 l-3
-2150 -23 -57 c-35 -86 -81 -147 -150 -200 -109 -83 -103 -82 -634 -86 l-468
-3 0 -852 0 -852 -853 853 -852 852 -2146 0 c-1354 0 -2165 4 -2198 10 -180
34 -316 183 -341 371 -13 99 -13 4258 0 4357 22 166 131 297 295 354 47 16
250 17 3551 15 l3500 -2 76 -38z"/>
</g>
</svg>
