<svg xmlns="http://www.w3.org/2000/svg" width="12" height="12" viewBox="0 0 16.394 16.394">
  <g id="noun_Close_636011" transform="translate(-0.208 -0.267)">
    <path id="Path" fill="#fff" d="M9.445,8.2,16.1,1.515a.861.861,0,0,0,0-1.247.861.861,0,0,0-1.247,0L8.2,6.95,1.515.267a.861.861,0,0,0-1.247,0,.861.861,0,0,0,0,1.247L6.92,8.2.267,14.88a.861.861,0,0,0,0,1.247.906.906,0,0,0,.624.267.906.906,0,0,0,.624-.267L8.2,9.445l6.683,6.682a.861.861,0,0,0,1.247,0,.861.861,0,0,0,0-1.247Z" transform="translate(0.208 0.267)"/>
  </g>
</svg>
