<svg width="16" height="18" viewBox="0 0 16 18" fill="none" xmlns="http://www.w3.org/2000/svg">
<rect x="5" width="4.99937" height="4.99937" rx="1" fill="#FF2E9A"/>
<rect x="10.9992" width="4.99937" height="4.99937" rx="1" fill="#FF2E9A"/>
<rect x="5" y="6.00195" width="4.99937" height="4.99937" rx="1" fill="#FF2E9A"/>
<rect x="10.9992" y="6.00195" width="4.99937" height="4.99937" rx="1" fill="#FF2E9A"/>
<g clip-path="url(#clip0_6104_157503)">
<path d="M8.85019 12.0508C9.65964 11.3766 10.175 10.3611 10.175 9.22578C10.175 7.19672 8.52905 5.55078 6.49999 5.55078C4.47093 5.55078 2.82499 7.19672 2.82499 9.22578C2.82499 10.3611 3.34033 11.3766 4.14978 12.0508H3.89999C2.04968 12.0508 0.549988 13.5505 0.549988 15.4008V15.7258C0.549988 16.6783 1.32249 17.4508 2.27499 17.4508H10.725C11.6775 17.4508 12.45 16.6783 12.45 15.7258V15.4008C12.45 13.5505 10.9503 12.0508 9.09999 12.0508H8.85019Z" fill="#FF2E9A" stroke="#292549" stroke-width="1.5"/>
</g>
<defs>
<clipPath id="clip0_6104_157503">
<rect width="13" height="13" fill="white" transform="translate(0 5)"/>
</clipPath>
</defs>
</svg>
