<svg width="28" height="28" viewBox="0 0 28 28" fill="none" xmlns="http://www.w3.org/2000/svg">
<path fill-rule="evenodd" clip-rule="evenodd" d="M13.9998 0.666626C13.0794 0.666626 12.3332 1.41282 12.3332 2.33329V12.3333H2.33317C1.4127 12.3333 0.666504 13.0795 0.666504 14C0.666504 14.9204 1.4127 15.6666 2.33317 15.6666H12.3332V25.6666C12.3332 26.5871 13.0794 27.3333 13.9998 27.3333C14.9203 27.3333 15.6665 26.5871 15.6665 25.6666V15.6666H25.6665C26.587 15.6666 27.3332 14.9204 27.3332 14C27.3332 13.0795 26.587 12.3333 25.6665 12.3333H15.6665V2.33329C15.6665 1.41282 14.9203 0.666626 13.9998 0.666626Z" fill="#7C9CBF"/>
</svg>
