<svg width="14" height="14" viewBox="0 0 14 14" fill="none" xmlns="http://www.w3.org/2000/svg">
<path fill-rule="evenodd" clip-rule="evenodd" d="M2.28711 6.71423C2.28711 4.62355 3.98195 2.92871 6.07263 2.92871C8.16332 2.92871 9.85816 4.62355 9.85816 6.71423C9.85816 7.72515 9.46189 8.64352 8.81623 9.32248C8.79188 9.34261 8.76826 9.36407 8.74547 9.38686C8.72266 9.40967 8.70119 9.4333 8.68104 9.45767C8.00207 10.1034 7.08363 10.4998 6.07263 10.4998C3.98195 10.4998 2.28711 8.80492 2.28711 6.71423ZM9.39541 11.451C8.45513 12.1118 7.30919 12.4998 6.07263 12.4998C2.87738 12.4998 0.287109 9.90949 0.287109 6.71423C0.287109 3.51898 2.87738 0.928711 6.07263 0.928711C9.26789 0.928711 11.8582 3.51898 11.8582 6.71423C11.8582 7.95068 11.4703 9.09654 10.8096 10.0368L12.7618 11.989C13.1523 12.3795 13.1523 13.0127 12.7618 13.4032C12.3713 13.7937 11.7381 13.7937 11.3476 13.4032L9.39541 11.451Z" fill="#767676"/>
</svg>
