<svg width="30" height="25" viewBox="0 0 30 25" fill="none" xmlns="http://www.w3.org/2000/svg">
<path fill-rule="evenodd" clip-rule="evenodd" d="M18.3333 7.5C18.3333 9.80119 20.1988 11.6667 22.5 11.6667C24.8011 11.6667 26.6666 9.80119 26.6666 7.5C26.6666 5.19882 24.8011 3.33334 22.5 3.33334C20.1988 3.33334 18.3333 5.19882 18.3333 7.5ZM16 20.0186C16.4601 20.0289 17 20.0186 17 20.0186H21.9999H28.3293H28.9999C28.9999 20.0186 29.4999 20 29.9956 20.0186C30.1173 14.5682 27.5397 12.5 22.4997 12.5C17.6862 12.5 15.1213 14.5895 15 20.0186C15.5 20.0372 16 20.0186 16 20.0186Z" fill="#FF479D"/>
<mask id="mask0" mask-type="alpha" maskUnits="userSpaceOnUse" x="15" y="3" width="15" height="18">
<path fill-rule="evenodd" clip-rule="evenodd" d="M22.5 11.6667C20.1988 11.6667 18.3333 9.80119 18.3333 7.5C18.3333 5.19882 20.1988 3.33334 22.5 3.33334C24.8012 3.33334 26.6667 5.19882 26.6667 7.5C26.6667 9.80119 24.8012 11.6667 22.5 11.6667ZM22.5 10C23.8807 10 25 8.88071 25 7.5C25 6.11929 23.8807 5 22.5 5C21.1193 5 20 6.11929 20 7.5C20 8.88071 21.1193 10 22.5 10ZM15.8147 20.8331C16.2749 20.8434 16.6562 20.4787 16.6665 20.0186C16.7686 15.4478 18.648 14.1667 22.5 14.1667C26.567 14.1667 28.4312 15.4318 28.3295 19.9814C28.3193 20.4415 28.6839 20.8229 29.1441 20.8331C29.6042 20.8434 29.9855 20.4787 29.9958 20.0186C30.1175 14.5682 27.5399 12.5 22.5 12.5C17.6864 12.5 15.1215 14.5522 15.0002 19.9814C14.9899 20.4415 15.3546 20.8229 15.8147 20.8331Z" fill="white"/>
</mask>
<g mask="url(#mask0)">
</g>
<mask id="path-3-outside-1" maskUnits="userSpaceOnUse" x="4" y="2.33334" width="17" height="19" fill="black">
<rect fill="white" x="4" y="2.33334" width="17" height="19"/>
<path fill-rule="evenodd" clip-rule="evenodd" d="M8.33328 7.5C8.33328 9.80119 10.1988 11.6667 12.5 11.6667C14.8011 11.6667 16.6666 9.80119 16.6666 7.5C16.6666 5.19882 14.8011 3.33334 12.5 3.33334C10.1988 3.33334 8.33328 5.19882 8.33328 7.5ZM6 20.0186C6.46012 20.0289 7 20.0186 7 20.0186H11.9999H18.3293H18.9999C18.9999 20.0186 19.4999 20 19.9956 20.0186C20.1173 14.5682 17.5397 12.5 12.4997 12.5C7.6862 12.5 5.12126 14.5895 5 20.0186C5.5 20.0372 6 20.0186 6 20.0186Z"/>
</mask>
<path fill-rule="evenodd" clip-rule="evenodd" d="M8.33328 7.5C8.33328 9.80119 10.1988 11.6667 12.5 11.6667C14.8011 11.6667 16.6666 9.80119 16.6666 7.5C16.6666 5.19882 14.8011 3.33334 12.5 3.33334C10.1988 3.33334 8.33328 5.19882 8.33328 7.5ZM6 20.0186C6.46012 20.0289 7 20.0186 7 20.0186H11.9999H18.3293H18.9999C18.9999 20.0186 19.4999 20 19.9956 20.0186C20.1173 14.5682 17.5397 12.5 12.4997 12.5C7.6862 12.5 5.12126 14.5895 5 20.0186C5.5 20.0372 6 20.0186 6 20.0186Z" fill="#FF479D"/>
<path d="M7 20.0186V19.5185L6.99048 19.5187L7 20.0186ZM6 20.0186L6.01116 19.5187L5.99628 19.5184L5.98141 19.519L6 20.0186ZM18.9999 20.0186V20.5186H19.0092L19.0185 20.5183L18.9999 20.0186ZM19.9956 20.0186L19.9768 20.5183L20.4841 20.5373L20.4954 20.0298L19.9956 20.0186ZM5 20.0186L4.50012 20.0074L4.48912 20.4999L4.98141 20.5183L5 20.0186ZM12.5 11.1667C10.4749 11.1667 8.83328 9.52505 8.83328 7.5H7.83328C7.83328 10.0773 9.92262 12.1667 12.5 12.1667V11.1667ZM16.1666 7.5C16.1666 9.52505 14.525 11.1667 12.5 11.1667V12.1667C15.0773 12.1667 17.1666 10.0773 17.1666 7.5H16.1666ZM12.5 3.83334C14.525 3.83334 16.1666 5.47496 16.1666 7.5H17.1666C17.1666 4.92267 15.0773 2.83334 12.5 2.83334V3.83334ZM8.83328 7.5C8.83328 5.47496 10.4749 3.83334 12.5 3.83334V2.83334C9.92262 2.83334 7.83328 4.92267 7.83328 7.5H8.83328ZM7 20.0186C6.99048 19.5187 6.99049 19.5187 6.99049 19.5187C6.99049 19.5187 6.9905 19.5187 6.99049 19.5187C6.99049 19.5187 6.99048 19.5187 6.99045 19.5187C6.99041 19.5187 6.99034 19.5187 6.99023 19.5187C6.99002 19.5187 6.98967 19.5187 6.9892 19.5187C6.98826 19.5187 6.98681 19.5188 6.98488 19.5188C6.98101 19.5189 6.97519 19.519 6.96757 19.5191C6.95234 19.5194 6.92991 19.5197 6.90151 19.5201C6.84468 19.5209 6.76404 19.5218 6.66921 19.5225C6.47882 19.5237 6.23427 19.5237 6.01116 19.5187L5.98884 20.5185C6.22586 20.5238 6.4813 20.5238 6.67588 20.5225C6.77354 20.5218 6.85662 20.5208 6.9154 20.52C6.9448 20.5196 6.96815 20.5192 6.98423 20.519C6.99228 20.5188 6.99851 20.5187 7.00277 20.5186C7.0049 20.5186 7.00654 20.5186 7.00767 20.5186C7.00824 20.5185 7.00868 20.5185 7.00898 20.5185C7.00914 20.5185 7.00926 20.5185 7.00935 20.5185C7.00939 20.5185 7.00943 20.5185 7.00946 20.5185C7.00947 20.5185 7.00949 20.5185 7.00949 20.5185C7.00951 20.5185 7.00952 20.5185 7 20.0186ZM11.9999 19.5186H7V20.5186H11.9999V19.5186ZM18.3293 19.5186H11.9999V20.5186H18.3293V19.5186ZM18.9999 19.5186H18.3293V20.5186H18.9999V19.5186ZM20.0143 19.519C19.7552 19.5092 19.4972 19.5093 19.3057 19.5117C19.2095 19.5129 19.1291 19.5147 19.0725 19.5162C19.0442 19.5169 19.0218 19.5176 19.0062 19.5181C18.9985 19.5184 18.9924 19.5186 18.9883 19.5187C18.9862 19.5188 18.9845 19.5188 18.9834 19.5189C18.9828 19.5189 18.9823 19.5189 18.982 19.5189C18.9818 19.5189 18.9817 19.5189 18.9816 19.5189C18.9815 19.519 18.9815 19.519 18.9814 19.519C18.9814 19.519 18.9814 19.519 18.9814 19.519C18.9813 19.519 18.9813 19.519 18.9999 20.0186C19.0185 20.5183 19.0185 20.5183 19.0185 20.5183C19.0185 20.5183 19.0185 20.5183 19.0185 20.5183C19.0185 20.5183 19.0185 20.5183 19.0185 20.5183C19.0185 20.5183 19.0185 20.5183 19.0186 20.5183C19.0187 20.5183 19.019 20.5182 19.0194 20.5182C19.0201 20.5182 19.0214 20.5182 19.0231 20.5181C19.0264 20.518 19.0316 20.5178 19.0385 20.5176C19.0523 20.5171 19.0728 20.5165 19.0991 20.5158C19.1517 20.5144 19.2273 20.5127 19.3181 20.5116C19.5004 20.5093 19.7403 20.5094 19.9768 20.5183L20.0143 19.519ZM12.4997 13C14.9669 13 16.7155 13.5088 17.8386 14.5776C18.954 15.6391 19.555 17.3526 19.4957 20.0074L20.4954 20.0298C20.5579 17.2343 19.9309 15.1884 18.528 13.8532C17.1327 12.5253 15.0725 12 12.4997 12V13ZM5.49988 20.0298C5.55898 17.3833 6.21184 15.6577 7.33552 14.585C8.46128 13.5103 10.1544 13 12.4997 13V12C10.0316 12 8.03542 12.5344 6.64501 13.8617C5.25252 15.191 4.56227 17.2248 4.50012 20.0074L5.49988 20.0298ZM6 20.0186C5.98141 19.519 5.98142 19.519 5.98144 19.519C5.98144 19.519 5.98145 19.519 5.98146 19.519C5.98147 19.519 5.98147 19.519 5.98146 19.519C5.98145 19.519 5.98141 19.519 5.98134 19.519C5.98119 19.519 5.98093 19.519 5.98055 19.519C5.97979 19.519 5.97856 19.5191 5.97687 19.5191C5.9735 19.5192 5.96831 19.5194 5.96142 19.5196C5.94765 19.5201 5.92711 19.5207 5.90078 19.5214C5.84807 19.5228 5.77234 19.5245 5.6813 19.5256C5.49843 19.5279 5.25736 19.5278 5.01859 19.519L4.98141 20.5183C5.24264 20.528 5.50157 20.5279 5.6937 20.5256C5.79016 20.5244 5.87068 20.5226 5.92735 20.5211C5.9557 20.5203 5.97813 20.5196 5.99365 20.5191C6.00142 20.5189 6.00746 20.5187 6.01166 20.5185C6.01375 20.5184 6.01539 20.5184 6.01655 20.5183C6.01713 20.5183 6.01759 20.5183 6.01793 20.5183C6.0181 20.5183 6.01824 20.5183 6.01835 20.5183C6.01841 20.5183 6.01846 20.5183 6.0185 20.5183C6.01852 20.5183 6.01854 20.5183 6.01855 20.5183C6.01857 20.5183 6.01859 20.5183 6 20.0186Z" fill="white" mask="url(#path-3-outside-1)"/>
<mask id="mask1" mask-type="alpha" maskUnits="userSpaceOnUse" x="5" y="3" width="15" height="18">
<path fill-rule="evenodd" clip-rule="evenodd" d="M12.5 11.6667C10.1988 11.6667 8.33333 9.80119 8.33333 7.5C8.33333 5.19882 10.1988 3.33334 12.5 3.33334C14.8012 3.33334 16.6667 5.19882 16.6667 7.5C16.6667 9.80119 14.8012 11.6667 12.5 11.6667ZM12.5 10C13.8807 10 15 8.88071 15 7.5C15 6.11929 13.8807 5 12.5 5C11.1193 5 10 6.11929 10 7.5C10 8.88071 11.1193 10 12.5 10ZM5.81473 20.8331C6.27485 20.8434 6.65619 20.4787 6.66646 20.0186C6.76855 15.4478 8.64803 14.1667 12.5 14.1667C16.567 14.1667 18.4312 15.4318 18.3295 19.9814C18.3193 20.4415 18.6839 20.8229 19.1441 20.8331C19.6042 20.8434 19.9855 20.4787 19.9958 20.0186C20.1175 14.5682 17.5399 12.5 12.5 12.5C7.68641 12.5 5.12147 14.5522 5.00021 19.9814C4.98994 20.4415 5.35461 20.8229 5.81473 20.8331Z" fill="white"/>
</mask>
<g mask="url(#mask1)">
</g>
</svg>
