<?xml version="1.0" encoding="utf-8"?>
<!-- Generator: Adobe Illustrator 23.1.0, SVG Export Plug-In . SVG Version: 6.00 Build 0)  -->
<svg version="1.1" id="Layer_1" xmlns="http://www.w3.org/2000/svg" xmlns:xlink="http://www.w3.org/1999/xlink" x="0px" y="0px"
	 viewBox="0 0 22 20" style="enable-background:new 0 0 22 20;" xml:space="preserve">
<style type="text/css">
	.st0{fill:#FF479D;}
	.st1{fill-rule:evenodd;clip-rule:evenodd;fill:#FF479D;}
</style>
<g>
	<polygon class="st0" points="9.4,2.1 5.7,0.9 2.1,3.6 0.7,5.1 4.8,14.4 10.2,19 21.2,9.1 21.4,4.7 18.1,1 15.5,0.3 13,1.5 
		10.2,2.9 	"/>
</g>
<g>
	<path class="st1" d="M1.9,11.5l7.6,7.9c0.5,0.5,1.2,0.7,1.9,0.6c0.4-0.1,0.7-0.3,1-0.6l7.7-7.9c2.5-2.6,2.5-6.8,0-9.4
		S13.5-0.6,11,1.9C8.4-0.6,4.4-0.5,1.9,2C-0.6,4.6-0.6,8.9,1.9,11.5z M18.7,3.4c1.8,1.8,1.8,4.8,0,6.7L11,18l-7.6-7.9
		c-1.8-1.8-1.8-4.8,0-6.7c1.8-1.8,4.6-1.8,6.4,0L11,4.7l1.3-1.3C14,1.5,16.9,1.5,18.7,3.4z"/>
</g>
</svg>
