<svg width="22" height="20" viewBox="0 0 22 20" fill="none" xmlns="http://www.w3.org/2000/svg">
<path fill-rule="evenodd" clip-rule="evenodd" d="M1.89036 11.4623L9.53555 19.3885C10.0409 19.9124 10.7609 20.0998 11.4198 19.9502C11.7965 19.8705 12.1545 19.6812 12.4427 19.3825L20.1115 11.4341C22.6314 8.81686 22.6292 4.60714 20.1066 1.99257C17.6012 -0.604129 13.5446 -0.663127 10.9687 1.8173C8.39543 -0.61733 4.37655 -0.545123 1.88939 2.03324C-0.630172 4.64519 -0.629744 8.85091 1.89036 11.4623ZM18.6673 3.38125C20.4429 5.22154 20.4444 8.20475 18.6707 10.047L10.975 18L3.32951 10.0735C1.5571 8.23686 1.55679 5.25878 3.32883 3.42176C5.10087 1.58475 7.97422 1.58443 9.74663 3.42106L10.9702 4.68964L12.236 3.37772C14.0134 1.53938 16.8917 1.54096 18.6673 3.38125Z" fill="#FFf"/>
</svg>
